<svg id="MoreNovaPackages" xmlns="http://www.w3.org/2000/svg" xmlns:xlink="http://www.w3.org/1999/xlink" viewBox="0 0 200 20" style="max-width: 768px;">
  <defs>
    <radialGradient id="Unbenannter_Verlauf_2" data-name="Unbenannter Verlauf 2" cx="22.76998" cy="28.79842" r="0.27869" gradientTransform="matrix(28.83074, 19.38087, 19.38182, -28.83081, -1126.08428, 394.62971)" gradientUnits="userSpaceOnUse">
      <stop offset="0" stop-color="#00ffc4"/>
      <stop offset="1" stop-color="#00e1ff"/>
    </radialGradient>
  </defs>
  <g id="Button">
    <rect width="200" height="20" rx="3" style="fill: #1f2937"/>
  </g>
  <g>
    <g id="Novalogo">
      <path d="M97.32466,7.75229a4.05818,4.05818,0,0,1,.04085,5.739l-.0282.02832a5.08051,5.08051,0,0,1-7.45718-.3223,5.0836,5.0836,0,0,0,6.79608-.30745,3.15618,3.15618,0,0,0,.03148-4.4634L96.67621,8.395a3.23419,3.23419,0,0,0-4.54108,0,1.35245,1.35245,0,0,0-.014,1.9126l.014.014a1.386,1.386,0,0,0,1.94618,0,.462.462,0,0,1,.64872,0,.45072.45072,0,0,1,.00417.63741l-.00417.00417a2.31,2.31,0,0,1-3.24335,0,2.25446,2.25446,0,0,1-.02215-3.1882l.02215-.02215a4.1569,4.1569,0,0,1,5.838,0ZM93.75708,5.005a5.05445,5.05445,0,0,1,3.87668,1.798,5.084,5.084,0,0,0-6.79553.30662v.00055a3.15617,3.15617,0,0,0-.03175,4.46339l.03175.03176a3.23266,3.23266,0,0,0,4.54025,0,1.35245,1.35245,0,0,0,.01378-1.9126l-.01378-.01377a1.386,1.386,0,0,0-1.94617,0,.462.462,0,0,1-.64845,0,.45073.45073,0,0,1-.00444-.63741l.00444-.00444a2.31,2.31,0,0,1,3.24335,0,2.25444,2.25444,0,0,1,.02215,3.18819l-.02215.02216a4.15725,4.15725,0,0,1-5.83825,0,4.0579,4.0579,0,0,1-.04019-5.7386l.03469-.03475A5.05526,5.05526,0,0,1,93.75708,5.005Z" style="fill: url(#Unbenannter_Verlauf_2)"/>
    </g>
    <g>
      <path d="M4.51807,15.02148V5.15186h1.498l3.5,6.45361L13.002,5.15186h1.47022v9.86962h-1.624V8.37158L10.02,13.52344H8.97021L6.14209,8.3999v6.62158Z" style="fill: #b2b2b2"/>
      <path d="M19.59619,15.16113a3.75914,3.75914,0,0,1-1.84814-.43359,3.02151,3.02151,0,0,1-1.21826-1.23926,3.94062,3.94062,0,0,1-.4336-1.89648,3.90292,3.90292,0,0,1,.4336-1.89014,3.03763,3.03763,0,0,1,1.21826-1.23145,4.14615,4.14615,0,0,1,3.6958,0,3.03763,3.03763,0,0,1,1.21826,1.23145,3.90312,3.90312,0,0,1,.43408,1.89014,3.94083,3.94083,0,0,1-.43408,1.89648,3.02151,3.02151,0,0,1-1.21826,1.23926A3.75854,3.75854,0,0,1,19.59619,15.16113Zm0-1.33008a1.56312,1.56312,0,0,0,1.25977-.5664A2.54467,2.54467,0,0,0,21.332,11.5918,2.50856,2.50856,0,0,0,20.856,9.91943a1.71048,1.71048,0,0,0-2.52,0,2.50851,2.50851,0,0,0-.47608,1.67237,2.54462,2.54462,0,0,0,.47608,1.67285A1.56339,1.56339,0,0,0,19.59619,13.83105Z" style="fill: #b2b2b2"/>
      <path d="M24.53809,15.02148V8.17627h1.708v1.2041a2.28407,2.28407,0,0,1,2.15577-1.34473l.53222-.042L29.0459,9.478l-1.00781.09765q-1.72193.16846-1.72217,1.76416v3.68164Z" style="fill: #b2b2b2"/>
      <path d="M33.28809,15.16113a4.312,4.312,0,0,1-2.002-.43359,3.08321,3.08321,0,0,1-1.29541-1.23242,3.75177,3.75177,0,0,1-.45459-1.88965,3.791,3.791,0,0,1,.44092-1.86182,3.24683,3.24683,0,0,1,1.21777-1.25293,3.4452,3.4452,0,0,1,1.771-.45508,2.97044,2.97044,0,0,1,2.30322.92481,3.58378,3.58378,0,0,1,.84668,2.519v.51758h-4.8999a1.86412,1.86412,0,0,0,2.1001,1.834,3.90069,3.90069,0,0,0,1.148-.1748,3.14389,3.14389,0,0,0,1.0498-.55273l.49024,1.17578a3.65641,3.65641,0,0,1-1.23194.64453A4.84949,4.84949,0,0,1,33.28809,15.16113Zm-.252-5.93506A1.68734,1.68734,0,0,0,31.79,9.70166a2.1187,2.1187,0,0,0-.57422,1.28809h3.44385a2.0944,2.0944,0,0,0-.46875-1.3086A1.47968,1.47968,0,0,0,33.03613,9.22607Z" style="fill: #b2b2b2"/>
      <path d="M41.44971,15.02148V5.15186h1.792v8.34326h4.73193v1.52636Z" style="fill: #b2b2b2"/>
      <path d="M51.40381,15.16113a2.94668,2.94668,0,0,1-1.32324-.28711,2.28418,2.28418,0,0,1-.90967-.77636,1.93746,1.93746,0,0,1-.3291-1.10645,1.73306,1.73306,0,0,1,.39209-1.19629,2.33523,2.33523,0,0,1,1.27392-.63769,11.422,11.422,0,0,1,2.36573-.19483h.49023v-.29394a1.39011,1.39011,0,0,0-.30811-1.00879,1.43375,1.43375,0,0,0-1.03613-.30762,4.21587,4.21587,0,0,0-1.17578.17481,5.35265,5.35265,0,0,0-1.21777.53906l-.5044-1.19043a4.01358,4.01358,0,0,1,.86133-.44043,6.22623,6.22623,0,0,1,1.0498-.294,5.5786,5.5786,0,0,1,1.043-.10547,3.12736,3.12736,0,0,1,2.22608.69336,2.84326,2.84326,0,0,1,.728,2.14942v4.14306H53.3916V13.92969a1.90627,1.90627,0,0,1-.75586.90234A2.24525,2.24525,0,0,1,51.40381,15.16113Zm.36377-1.2041a1.51183,1.51183,0,0,0,1.14111-.47558,1.67324,1.67324,0,0,0,.45508-1.20411v-.30761H52.8877a5.58152,5.58152,0,0,0-1.82715.20312.73407.73407,0,0,0-.51075.73438.97451.97451,0,0,0,.32178.75586A1.27861,1.27861,0,0,0,51.76758,13.957Z" style="fill: #b2b2b2"/>
      <path d="M56.80762,15.02148V8.17627h1.708v1.2041a2.28407,2.28407,0,0,1,2.15577-1.34473l.53222-.042L61.31543,9.478l-1.00781.09765q-1.72192.16846-1.72217,1.76416v3.68164Z" style="fill: #b2b2b2"/>
      <path d="M64.48,15.16113a2.94671,2.94671,0,0,1-1.32324-.28711,2.28418,2.28418,0,0,1-.90967-.77636,1.93746,1.93746,0,0,1-.3291-1.10645,1.73306,1.73306,0,0,1,.39209-1.19629,2.33523,2.33523,0,0,1,1.27392-.63769,11.42211,11.42211,0,0,1,2.36573-.19483h.49023v-.29394a1.39015,1.39015,0,0,0-.3081-1.00879,1.43379,1.43379,0,0,0-1.03614-.30762,4.21587,4.21587,0,0,0-1.17578.17481,5.35265,5.35265,0,0,0-1.21777.53906l-.5044-1.19043a4.01358,4.01358,0,0,1,.86133-.44043,6.22635,6.22635,0,0,1,1.04981-.294,5.57852,5.57852,0,0,1,1.043-.10547,3.12735,3.12735,0,0,1,2.22607.69336,2.84326,2.84326,0,0,1,.728,2.14942v4.14306H66.46777V13.92969a1.90627,1.90627,0,0,1-.75586.90234A2.24525,2.24525,0,0,1,64.48,15.16113Zm.36377-1.2041a1.51183,1.51183,0,0,0,1.14111-.47558,1.6732,1.6732,0,0,0,.45508-1.20411v-.30761h-.47607a5.58156,5.58156,0,0,0-1.82715.20312.73406.73406,0,0,0-.51074.73438.9745.9745,0,0,0,.32177.75586A1.27861,1.27861,0,0,0,64.84375,13.957Z" style="fill: #b2b2b2"/>
      <path d="M71.82959,15.02148,68.86182,8.17627h1.86181l1.9043,4.7876,1.97412-4.7876h1.75L73.3418,15.02148Z" style="fill: #b2b2b2"/>
      <path d="M80.42529,15.16113a4.31132,4.31132,0,0,1-2.00146-.43359,3.08315,3.08315,0,0,1-1.29541-1.23242,3.75177,3.75177,0,0,1-.45459-1.88965,3.79084,3.79084,0,0,1,.44092-1.86182,3.24669,3.24669,0,0,1,1.21777-1.25293A3.44467,3.44467,0,0,1,80.103,8.03564a2.96865,2.96865,0,0,1,2.30273.92481,3.57523,3.57523,0,0,1,.84766,2.519v.51758h-4.8999a1.86377,1.86377,0,0,0,2.09912,1.834,3.90378,3.90378,0,0,0,1.14843-.1748,3.15774,3.15774,0,0,0,1.05079-.55273l.49023,1.17578a3.67778,3.67778,0,0,1-1.23242.64453A4.85027,4.85027,0,0,1,80.42529,15.16113Zm-.252-5.93506a1.687,1.687,0,0,0-1.24561.47559,2.1187,2.1187,0,0,0-.57421,1.28809h3.44482a2.1065,2.1065,0,0,0-.4707-1.3086A1.4786,1.4786,0,0,0,80.17334,9.22607Z" style="fill: #b2b2b2"/>
      <path d="M87.02,15.16113a2.2632,2.2632,0,0,1-1.79883-.665,2.8828,2.8828,0,0,1-.58105-1.95214V5.15186h1.75V12.46q0,1.25976,1.06347,1.25977c.10254,0,.20508-.00489.3086-.01465a1.43628,1.43628,0,0,0,.29394-.05567l-.02832,1.38575A4.14167,4.14167,0,0,1,87.02,15.16113Z" style="fill: #b2b2b2"/>
    </g>
    <g>
      <path d="M99.55518,15.02148V5.15186h1.34375l5.30615,6.8872V5.15186h1.666v9.86962H106.541L101.2207,8.106v6.91552Z" style="fill: #b2b2b2"/>
      <path d="M112.98047,15.16113a3.75854,3.75854,0,0,1-1.84766-.43359,3.02272,3.02272,0,0,1-1.21875-1.23926,3.94073,3.94073,0,0,1-.43359-1.89648,3.903,3.903,0,0,1,.43359-1.89014,3.03886,3.03886,0,0,1,1.21875-1.23145,4.14511,4.14511,0,0,1,3.69531,0,3.03883,3.03883,0,0,1,1.21876,1.23145,3.903,3.903,0,0,1,.43359,1.89014,3.94073,3.94073,0,0,1-.43359,1.89648,3.02268,3.02268,0,0,1-1.21876,1.23926A3.75852,3.75852,0,0,1,112.98047,15.16113Zm0-1.33008a1.56309,1.56309,0,0,0,1.25976-.5664,2.54461,2.54461,0,0,0,.47657-1.67285,2.50848,2.50848,0,0,0-.47657-1.67237,1.70992,1.70992,0,0,0-2.51953,0,2.50854,2.50854,0,0,0-.47656,1.67237,2.54467,2.54467,0,0,0,.47656,1.67285A1.56312,1.56312,0,0,0,112.98047,13.83105Z" style="fill: #b2b2b2"/>
      <path d="M119.79785,15.02148l-2.96777-6.84521h1.8623l1.9043,4.7876,1.97363-4.7876h1.75l-3.00976,6.84521Z" style="fill: #b2b2b2"/>
      <path d="M127.27441,15.16113a2.94821,2.94821,0,0,1-1.32324-.28711,2.28267,2.28267,0,0,1-.90918-.77636,1.93754,1.93754,0,0,1-.3291-1.10645,1.73286,1.73286,0,0,1,.3916-1.19629,2.33871,2.33871,0,0,1,1.27442-.63769,11.41672,11.41672,0,0,1,2.36523-.19483h.49024v-.29394a1.39011,1.39011,0,0,0-.30762-1.00879,1.43457,1.43457,0,0,0-1.03614-.30762,4.21587,4.21587,0,0,0-1.17578.17481,5.353,5.353,0,0,0-1.21777.53906l-.50488-1.19043a4.03632,4.03632,0,0,1,.86133-.44043,6.23917,6.23917,0,0,1,1.0498-.294,5.58659,5.58659,0,0,1,1.043-.10547,3.12787,3.12787,0,0,1,2.22656.69336,2.84313,2.84313,0,0,1,.72754,2.14942v4.14306H129.2627V13.92969a1.91182,1.91182,0,0,1-.75586.90234A2.247,2.247,0,0,1,127.27441,15.16113Zm.36426-1.2041a1.5108,1.5108,0,0,0,1.14063-.47558,1.67119,1.67119,0,0,0,.45508-1.20411v-.30761h-.47559a5.57955,5.57955,0,0,0-1.82715.20312.73406.73406,0,0,0-.51074.73438.97408.97408,0,0,0,.32129.75586A1.27986,1.27986,0,0,0,127.63867,13.957Z" style="fill: #b2b2b2"/>
      <path d="M136.626,15.02148V5.15186h4.28418a3.567,3.567,0,0,1,2.50586.812,2.9294,2.9294,0,0,1,.88183,2.26806,2.9523,2.9523,0,0,1-.88183,2.27539,3.54847,3.54847,0,0,1-2.50586.81788H138.418v3.69628Zm1.792-5.10986h2.21191q1.93213,0,1.93262-1.67969,0-1.66553-1.93262-1.666H138.418Z" style="fill: #b2b2b2"/>
      <path d="M147.51855,15.16113a2.94526,2.94526,0,0,1-1.32324-.28711,2.28565,2.28565,0,0,1-.91015-.77636,1.93747,1.93747,0,0,1-.32911-1.10645,1.73326,1.73326,0,0,1,.39258-1.19629,2.33186,2.33186,0,0,1,1.27344-.63769,11.42716,11.42716,0,0,1,2.36621-.19483h.49024v-.29394a1.39011,1.39011,0,0,0-.3086-1.00879,1.433,1.433,0,0,0-1.03613-.30762,4.21587,4.21587,0,0,0-1.17578.17481,5.3529,5.3529,0,0,0-1.21778.53906l-.5039-1.19043a3.99039,3.99039,0,0,1,.86133-.44043,6.21334,6.21334,0,0,1,1.0498-.294,5.57047,5.57047,0,0,1,1.043-.10547A3.12686,3.12686,0,0,1,150.416,8.729a2.84338,2.84338,0,0,1,.72851,2.14942v4.14306h-1.63867V13.92969a1.90086,1.90086,0,0,1-.75586.90234A2.24359,2.24359,0,0,1,147.51855,15.16113Zm.36329-1.2041a1.51291,1.51291,0,0,0,1.1416-.47558,1.6753,1.6753,0,0,0,.45508-1.20411v-.30761H149.002a5.58358,5.58358,0,0,0-1.82715.20312.73406.73406,0,0,0-.51074.73438.97488.97488,0,0,0,.32227.75586A1.27728,1.27728,0,0,0,147.88184,13.957Z" style="fill: #b2b2b2"/>
      <path d="M156.08691,15.16113a3.81362,3.81362,0,0,1-1.876-.44043,3.03523,3.03523,0,0,1-1.23242-1.25293,3.98591,3.98591,0,0,1-.4336-1.90429,3.86089,3.86089,0,0,1,.4336-1.88233,2.97422,2.97422,0,0,1,1.23242-1.21777,3.90918,3.90918,0,0,1,1.876-.42774,4.18732,4.18732,0,0,1,1.30176.21,2.9254,2.9254,0,0,1,1.06348.58789l-.51758,1.21875a2.57413,2.57413,0,0,0-.81934-.49024,2.51171,2.51171,0,0,0-.875-.168,1.77056,1.77056,0,0,0-1.40722.56739,2.37713,2.37713,0,0,0-.4961,1.61572,2.46652,2.46652,0,0,0,.4961,1.63086,1.73094,1.73094,0,0,0,1.40722.5957,2.56218,2.56218,0,0,0,.86817-.168,2.45124,2.45124,0,0,0,.82617-.5039l.51758,1.23144a3.10538,3.10538,0,0,1-1.07031.58106A4.084,4.084,0,0,1,156.08691,15.16113Z" style="fill: #b2b2b2"/>
      <path d="M159.53027,15.02148V5.15186h1.75v5.936h.02735l2.75781-2.91162h2.11426l-3.10742,3.2749,3.30371,3.57031H164.2334l-2.92578-3.05175h-.02735v3.05175Z" style="fill: #b2b2b2"/>
      <path d="M169.21777,15.16113a2.94821,2.94821,0,0,1-1.32324-.28711,2.28267,2.28267,0,0,1-.90918-.77636,1.93746,1.93746,0,0,1-.3291-1.10645,1.73286,1.73286,0,0,1,.3916-1.19629,2.33871,2.33871,0,0,1,1.27442-.63769,11.41672,11.41672,0,0,1,2.36523-.19483h.49023v-.29394a1.39011,1.39011,0,0,0-.30761-1.00879,1.43457,1.43457,0,0,0-1.03614-.30762,4.21587,4.21587,0,0,0-1.17578.17481,5.353,5.353,0,0,0-1.21777.53906l-.50488-1.19043a4.03632,4.03632,0,0,1,.86133-.44043,6.23917,6.23917,0,0,1,1.0498-.294,5.58659,5.58659,0,0,1,1.043-.10547,3.12787,3.12787,0,0,1,2.22656.69336,2.84313,2.84313,0,0,1,.72754,2.14942v4.14306h-1.6377V13.92969a1.91174,1.91174,0,0,1-.75585.90234A2.247,2.247,0,0,1,169.21777,15.16113Zm.36426-1.2041a1.5108,1.5108,0,0,0,1.14063-.47558,1.67118,1.67118,0,0,0,.45507-1.20411v-.30761h-.47558a5.57955,5.57955,0,0,0-1.82715.20312.73406.73406,0,0,0-.51074.73438.97408.97408,0,0,0,.32129.75586A1.27986,1.27986,0,0,0,169.582,13.957Z" style="fill: #b2b2b2"/>
      <path d="M177.81445,17.68164a7.06282,7.06282,0,0,1-1.78515-.2168,4.45925,4.45925,0,0,1-1.46289-.665l.5039-1.21875a4.41652,4.41652,0,0,0,1.25977.58106,4.95433,4.95433,0,0,0,1.34375.18945q1.87793,0,1.87695-1.80566v-.93848a2.15484,2.15484,0,0,1-.9043.91016,2.74492,2.74492,0,0,1-1.3496.33594,2.9879,2.9879,0,0,1-1.61036-.42676,2.85407,2.85407,0,0,1-1.06445-1.19727,4.02056,4.02056,0,0,1-.37793-1.792,3.97513,3.97513,0,0,1,.37793-1.78467,2.85621,2.85621,0,0,1,1.06445-1.18945,2.97982,2.97982,0,0,1,1.61036-.42774,2.70727,2.70727,0,0,1,1.37109.34375,2.11116,2.11116,0,0,1,.88281.917V8.17627h1.707v6.15967a3.30494,3.30494,0,0,1-.88086,2.50586A3.58016,3.58016,0,0,1,177.81445,17.68164Zm-.043-4.1582a1.60473,1.60473,0,0,0,1.28907-.55957,2.28862,2.28862,0,0,0,.47656-1.52637,2.25562,2.25562,0,0,0-.47656-1.51807,1.77508,1.77508,0,0,0-2.57617,0,2.25557,2.25557,0,0,0-.47657,1.51807,2.28857,2.28857,0,0,0,.47657,1.52637A1.60072,1.60072,0,0,0,177.77148,13.52344Z" style="fill: #b2b2b2"/>
      <path d="M186.45215,15.16113a4.3106,4.3106,0,0,1-2.00195-.43359,3.07637,3.07637,0,0,1-1.29493-1.23242,3.74686,3.74686,0,0,1-.45507-1.88965,3.79079,3.79079,0,0,1,.44042-1.86182,3.24582,3.24582,0,0,1,1.21876-1.25293,3.44084,3.44084,0,0,1,1.7705-.45508,2.96867,2.96867,0,0,1,2.30274.92481,3.57973,3.57973,0,0,1,.84765,2.519v.51758h-4.90039a1.86419,1.86419,0,0,0,2.09961,1.834,3.90384,3.90384,0,0,0,1.14844-.1748,3.14389,3.14389,0,0,0,1.0498-.55273l.49024,1.17578a3.659,3.659,0,0,1-1.23242.64453A4.84414,4.84414,0,0,1,186.45215,15.16113Zm-.25195-5.93506a1.68812,1.68812,0,0,0-1.2461.47559,2.1187,2.1187,0,0,0-.57422,1.28809h3.44434a2.10046,2.10046,0,0,0-.46973-1.3086A1.47858,1.47858,0,0,0,186.2002,9.22607Z" style="fill: #b2b2b2"/>
      <path d="M193.17188,15.16113a6.01851,6.01851,0,0,1-1.624-.21,3.58324,3.58324,0,0,1-1.25976-.60156l.44824-1.14844a4.13678,4.13678,0,0,0,1.16113.53906,4.56126,4.56126,0,0,0,1.28809.18946,1.7477,1.7477,0,0,0,1.001-.23145.7088.7088,0,0,0,.3291-.6084q0-.58886-.86816-.75683l-1.39941-.26563q-1.77833-.33544-1.77832-1.84717a1.8724,1.8724,0,0,1,.37109-1.1621,2.35292,2.35292,0,0,1,1.0293-.75586,3.99976,3.99976,0,0,1,1.51172-.26661,4.8378,4.8378,0,0,1,1.40039.20313,3.15816,3.15816,0,0,1,1.14746.60937l-.47559,1.14747a3.11767,3.11767,0,0,0-.97363-.53125,3.31217,3.31217,0,0,0-1.085-.19629,1.73546,1.73546,0,0,0-1.01465.23828.73913.73913,0,0,0-.3291.62988q0,.61524.79785.75586l1.40039.26514a2.65141,2.65141,0,0,1,1.37891.61621,1.58791,1.58791,0,0,1,.46875,1.2041,1.87108,1.87108,0,0,1-.79786,1.60254A3.5359,3.5359,0,0,1,193.17188,15.16113Z" style="fill: #b2b2b2"/>
    </g>
  </g>
</svg>
